<svg xmlns="http://www.w3.org/2000/svg" xmlns:xlink="http://www.w3.org/1999/xlink" width="1920" zoomAndPan="magnify" viewBox="0 0 1440 809.999993" height="1080" preserveAspectRatio="xMidYMid meet" version="1.0"><defs><clipPath id="4a4c333b59"><path d="M 343 3.046875 L 1097 3.046875 L 1097 806.664062 L 343 806.664062 Z M 343 3.046875 " clip-rule="nonzero"/></clipPath></defs><g clip-path="url(#4a4c333b59)"><path fill="#a0a0a0" d="M 719.824219 69.488281 C 784.164062 69.488281 842.648438 95.800781 884.992188 138.144531 C 927.335938 180.488281 953.652344 238.972656 953.652344 303.3125 L 953.652344 573.175781 C 953.652344 637.511719 927.335938 696 884.992188 738.339844 C 842.59375 780.683594 784.164062 807 719.824219 807 C 655.488281 807 597 780.683594 554.660156 738.339844 C 512.316406 695.941406 486 637.511719 486 573.175781 L 486 303.3125 C 486 238.972656 512.316406 180.488281 554.660156 138.144531 C 597.058594 95.746094 655.488281 69.488281 719.824219 69.488281 Z M 391.367188 -208.160156 C 380.339844 -197.132812 362.378906 -197.132812 351.351562 -208.160156 C 340.328125 -219.1875 340.328125 -237.148438 351.351562 -248.175781 C 453.148438 -349.910156 586.488281 -400.78125 719.824219 -400.78125 C 853.164062 -400.78125 986.5625 -349.910156 1088.296875 -248.175781 C 1099.324219 -237.148438 1099.324219 -219.1875 1088.296875 -208.160156 C 1077.273438 -197.132812 1059.3125 -197.132812 1048.285156 -208.160156 C 957.574219 -298.871094 838.730469 -344.226562 719.824219 -344.226562 C 600.921875 -344.226562 482.078125 -298.871094 391.367188 -208.160156 Z M 548.007812 -51.519531 C 536.980469 -40.492188 519.023438 -40.492188 507.996094 -51.519531 C 496.96875 -62.546875 496.96875 -80.449219 507.996094 -91.53125 C 566.539062 -150.074219 643.210938 -179.289062 719.882812 -179.289062 C 796.554688 -179.289062 873.226562 -150.015625 931.769531 -91.53125 C 942.796875 -80.503906 942.796875 -62.601562 931.769531 -51.519531 C 920.742188 -40.492188 902.785156 -40.492188 891.757812 -51.519531 C 844.296875 -98.976562 782.117188 -122.679688 719.941406 -122.679688 C 657.761719 -122.679688 595.523438 -98.976562 548.121094 -51.519531 Z M 719.824219 224.707031 C 747.789062 224.707031 773.140625 236.074219 791.441406 254.375 C 809.796875 272.734375 821.109375 298.085938 821.109375 326.046875 C 821.109375 354.011719 809.742188 379.359375 791.441406 397.664062 C 773.140625 416.019531 747.789062 427.332031 719.824219 427.332031 C 691.863281 427.332031 666.511719 415.964844 648.210938 397.664062 C 629.851562 379.359375 618.542969 354.011719 618.542969 326.046875 C 618.542969 298.085938 629.910156 272.734375 648.210938 254.375 C 666.511719 236.074219 691.863281 224.707031 719.824219 224.707031 Z M 751.425781 294.390625 C 743.300781 286.320312 732.160156 281.316406 719.824219 281.316406 C 707.492188 281.316406 696.296875 286.320312 688.226562 294.390625 C 680.152344 302.460938 675.152344 313.65625 675.152344 325.992188 C 675.152344 338.324219 680.152344 349.519531 688.226562 357.59375 C 696.351562 365.664062 707.492188 370.664062 719.824219 370.664062 C 732.160156 370.664062 743.355469 365.664062 751.425781 357.59375 C 759.496094 349.464844 764.5 338.324219 764.5 325.992188 C 764.5 313.65625 759.5 302.460938 751.425781 294.390625 Z M 897.042969 551.179688 C 893.179688 555.667969 889.144531 559.988281 884.992188 564.195312 C 842.59375 606.539062 784.164062 632.851562 719.824219 632.851562 C 655.488281 632.851562 597 606.539062 554.660156 564.195312 C 550.507812 559.988281 546.472656 555.667969 542.609375 551.179688 L 542.609375 573.175781 C 542.609375 621.882812 562.558594 666.214844 594.671875 698.328125 C 626.785156 730.441406 671.117188 750.449219 719.824219 750.449219 C 768.535156 750.449219 812.867188 730.5 844.980469 698.328125 C 877.09375 666.214844 897.042969 621.882812 897.042969 573.175781 Z M 897.042969 551.179688 " fill-opacity="1" fill-rule="evenodd"/></g></svg>